<svg xmlns="http://www.w3.org/2000/svg" width="96" height="97" viewBox="0 0 96 97"><defs><style>.a{fill:none;}.b{fill:#fff;}</style></defs><rect class="a" width="96" height="97"/><g transform="translate(7.896 8.059)"><path class="b" d="M42.3,2a40.3,40.3,0,1,0,40.3,40.3A40.312,40.312,0,0,0,42.3,2Zm4.03,13.3,5.44-3.828a32.279,32.279,0,0,1,17.65,13.459l-1.572,5.4-5.44,1.854L46.327,20.94Zm-13.5-3.828,5.44,3.828V20.94L22.189,32.182l-5.44-1.854-1.572-5.4A32.653,32.653,0,0,1,32.827,11.47ZM22.471,62.889l-4.594.4A31.99,31.99,0,0,1,10.059,42.3c0-.484.04-.927.081-1.41l4.03-2.942,5.561,1.934,5.883,17.489Zm29.9,9.994a31.54,31.54,0,0,1-20.149,0l-2.78-6,2.579-4.433H52.613l2.579,4.473Zm-.927-18.5H33.15l-5.44-16.2L42.3,27.951,56.925,38.187Zm15.273,8.906-4.594-.4L58.94,57.368l5.883-17.489,5.6-1.894,4.03,2.942c.04.443.081.887.081,1.37A31.99,31.99,0,0,1,66.717,63.292Z" transform="translate(-2 -2)"/></g></svg>